<mxfile host="app.diagrams.net" modified="2023-06-09T07:06:39.294Z" agent="Mozilla/5.0 (Windows NT 10.0; Win64; x64) AppleWebKit/537.36 (KHTML, like Gecko) Chrome/114.0.0.0 Safari/537.36" etag="-deKaegyGyHZZ5-TMnvU" version="21.3.8" type="github">
  <diagram id="C5RBs43oDa-KdzZeNtuy" name="Page-1">
    <mxGraphModel dx="1105" dy="1803" grid="1" gridSize="10" guides="1" tooltips="1" connect="1" arrows="1" fold="1" page="1" pageScale="1" pageWidth="827" pageHeight="1169" math="0" shadow="0">
      <root>
        <mxCell id="WIyWlLk6GJQsqaUBKTNV-0" />
        <mxCell id="WIyWlLk6GJQsqaUBKTNV-1" parent="WIyWlLk6GJQsqaUBKTNV-0" />
        <mxCell id="PFkLjK3XJ7uAtAQepgfN-0" value="이미지 입력&lt;br&gt;(ref, img)" style="rounded=1;whiteSpace=wrap;html=1;fontSize=12;glass=0;strokeWidth=1;shadow=0;" vertex="1" parent="WIyWlLk6GJQsqaUBKTNV-1">
          <mxGeometry x="120" y="-10" width="140" height="40" as="geometry" />
        </mxCell>
        <mxCell id="PFkLjK3XJ7uAtAQepgfN-10" style="edgeStyle=orthogonalEdgeStyle;rounded=0;orthogonalLoop=1;jettySize=auto;html=1;exitX=0.5;exitY=1;exitDx=0;exitDy=0;entryX=0.5;entryY=0;entryDx=0;entryDy=0;" edge="1" parent="WIyWlLk6GJQsqaUBKTNV-1" source="PFkLjK3XJ7uAtAQepgfN-11" target="PFkLjK3XJ7uAtAQepgfN-50">
          <mxGeometry relative="1" as="geometry">
            <mxPoint x="250" y="110" as="targetPoint" />
          </mxGeometry>
        </mxCell>
        <mxCell id="PFkLjK3XJ7uAtAQepgfN-11" value="특징 추출(SIFT) 및&lt;br&gt;비슷한 특징 매칭(knn)" style="rounded=1;whiteSpace=wrap;html=1;fontSize=12;glass=0;strokeWidth=1;shadow=0;" vertex="1" parent="WIyWlLk6GJQsqaUBKTNV-1">
          <mxGeometry x="120" y="60" width="140" height="40" as="geometry" />
        </mxCell>
        <mxCell id="PFkLjK3XJ7uAtAQepgfN-14" style="edgeStyle=orthogonalEdgeStyle;rounded=0;orthogonalLoop=1;jettySize=auto;html=1;exitX=0.5;exitY=1;exitDx=0;exitDy=0;entryX=0.5;entryY=0;entryDx=0;entryDy=0;" edge="1" parent="WIyWlLk6GJQsqaUBKTNV-1" source="PFkLjK3XJ7uAtAQepgfN-15" target="PFkLjK3XJ7uAtAQepgfN-58">
          <mxGeometry relative="1" as="geometry">
            <mxPoint x="190" y="400" as="targetPoint" />
            <Array as="points" />
          </mxGeometry>
        </mxCell>
        <mxCell id="PFkLjK3XJ7uAtAQepgfN-15" value="&lt;b&gt;호모그래피 행렬에서&lt;br&gt;각도정보 추출&lt;/b&gt;&lt;br&gt;&lt;br&gt;theta : arccos(mean(M[0,0], M[1,1]))" style="rounded=1;whiteSpace=wrap;html=1;fontSize=12;glass=0;strokeWidth=1;shadow=0;" vertex="1" parent="WIyWlLk6GJQsqaUBKTNV-1">
          <mxGeometry x="90" y="210" width="200" height="90" as="geometry" />
        </mxCell>
        <mxCell id="PFkLjK3XJ7uAtAQepgfN-44" value="Start" style="ellipse;whiteSpace=wrap;html=1;" vertex="1" parent="WIyWlLk6GJQsqaUBKTNV-1">
          <mxGeometry x="160" y="-90" width="60" height="50" as="geometry" />
        </mxCell>
        <mxCell id="PFkLjK3XJ7uAtAQepgfN-45" style="edgeStyle=orthogonalEdgeStyle;rounded=0;orthogonalLoop=1;jettySize=auto;html=1;exitX=0.5;exitY=1;exitDx=0;exitDy=0;entryX=0.5;entryY=0;entryDx=0;entryDy=0;" edge="1" parent="WIyWlLk6GJQsqaUBKTNV-1" source="PFkLjK3XJ7uAtAQepgfN-44" target="PFkLjK3XJ7uAtAQepgfN-0">
          <mxGeometry relative="1" as="geometry">
            <mxPoint x="340" y="30" as="sourcePoint" />
            <mxPoint x="450" y="-30" as="targetPoint" />
            <Array as="points">
              <mxPoint x="190" y="-30" />
              <mxPoint x="190" y="-30" />
            </Array>
          </mxGeometry>
        </mxCell>
        <mxCell id="PFkLjK3XJ7uAtAQepgfN-46" style="edgeStyle=orthogonalEdgeStyle;rounded=0;orthogonalLoop=1;jettySize=auto;html=1;exitX=0.5;exitY=1;exitDx=0;exitDy=0;" edge="1" parent="WIyWlLk6GJQsqaUBKTNV-1" source="PFkLjK3XJ7uAtAQepgfN-0">
          <mxGeometry relative="1" as="geometry">
            <mxPoint x="310" y="70" as="sourcePoint" />
            <mxPoint x="190" y="60" as="targetPoint" />
            <Array as="points" />
          </mxGeometry>
        </mxCell>
        <mxCell id="PFkLjK3XJ7uAtAQepgfN-50" value="좋은 특징 4개 이상?" style="rhombus;whiteSpace=wrap;html=1;shadow=0;fontFamily=Helvetica;fontSize=12;align=center;strokeWidth=1;spacing=6;spacingTop=-4;" vertex="1" parent="WIyWlLk6GJQsqaUBKTNV-1">
          <mxGeometry x="115" y="120" width="150" height="50" as="geometry" />
        </mxCell>
        <mxCell id="PFkLjK3XJ7uAtAQepgfN-52" value="No" style="edgeStyle=orthogonalEdgeStyle;rounded=0;html=1;jettySize=auto;orthogonalLoop=1;fontSize=11;endArrow=block;endFill=0;endSize=8;strokeWidth=1;shadow=0;labelBackgroundColor=none;entryX=0.5;entryY=1;entryDx=0;entryDy=0;" edge="1" parent="WIyWlLk6GJQsqaUBKTNV-1" target="PFkLjK3XJ7uAtAQepgfN-55">
          <mxGeometry x="-0.0011" y="20" relative="1" as="geometry">
            <mxPoint as="offset" />
            <mxPoint x="265" y="144.66" as="sourcePoint" />
            <mxPoint x="380" y="100" as="targetPoint" />
            <Array as="points">
              <mxPoint x="380" y="145" />
            </Array>
          </mxGeometry>
        </mxCell>
        <mxCell id="PFkLjK3XJ7uAtAQepgfN-54" value="Yes" style="edgeStyle=orthogonalEdgeStyle;rounded=0;html=1;jettySize=auto;orthogonalLoop=1;fontSize=11;endArrow=block;endFill=0;endSize=8;strokeWidth=1;shadow=0;labelBackgroundColor=none;exitX=0.5;exitY=1;exitDx=0;exitDy=0;entryX=0.5;entryY=0;entryDx=0;entryDy=0;" edge="1" parent="WIyWlLk6GJQsqaUBKTNV-1" source="PFkLjK3XJ7uAtAQepgfN-50" target="PFkLjK3XJ7uAtAQepgfN-15">
          <mxGeometry y="20" relative="1" as="geometry">
            <mxPoint as="offset" />
            <mxPoint x="200" y="180" as="sourcePoint" />
            <mxPoint x="280" y="180" as="targetPoint" />
          </mxGeometry>
        </mxCell>
        <mxCell id="PFkLjK3XJ7uAtAQepgfN-55" value="threshold + 0.1" style="rounded=1;whiteSpace=wrap;html=1;fontSize=12;glass=0;strokeWidth=1;shadow=0;" vertex="1" parent="WIyWlLk6GJQsqaUBKTNV-1">
          <mxGeometry x="330" y="70" width="100" height="20" as="geometry" />
        </mxCell>
        <mxCell id="PFkLjK3XJ7uAtAQepgfN-57" style="edgeStyle=orthogonalEdgeStyle;rounded=0;orthogonalLoop=1;jettySize=auto;html=1;exitX=0;exitY=0.5;exitDx=0;exitDy=0;entryX=1;entryY=0.5;entryDx=0;entryDy=0;" edge="1" parent="WIyWlLk6GJQsqaUBKTNV-1" source="PFkLjK3XJ7uAtAQepgfN-55" target="PFkLjK3XJ7uAtAQepgfN-11">
          <mxGeometry relative="1" as="geometry">
            <mxPoint x="480" y="100" as="sourcePoint" />
            <mxPoint x="480" y="320" as="targetPoint" />
          </mxGeometry>
        </mxCell>
        <mxCell id="PFkLjK3XJ7uAtAQepgfN-58" value="&lt;font style=&quot;font-size: 15px;&quot;&gt;&lt;b&gt;minute = theta/60&lt;/b&gt;&lt;/font&gt;&lt;br&gt;(theta : minute = 360 : 60)" style="rounded=1;whiteSpace=wrap;html=1;fontSize=12;glass=0;strokeWidth=1;shadow=0;" vertex="1" parent="WIyWlLk6GJQsqaUBKTNV-1">
          <mxGeometry x="120" y="330" width="140" height="60" as="geometry" />
        </mxCell>
        <mxCell id="PFkLjK3XJ7uAtAQepgfN-59" style="edgeStyle=orthogonalEdgeStyle;rounded=0;orthogonalLoop=1;jettySize=auto;html=1;exitX=0.5;exitY=1;exitDx=0;exitDy=0;entryX=0.5;entryY=0;entryDx=0;entryDy=0;" edge="1" target="PFkLjK3XJ7uAtAQepgfN-60" parent="WIyWlLk6GJQsqaUBKTNV-1" source="PFkLjK3XJ7uAtAQepgfN-58">
          <mxGeometry relative="1" as="geometry">
            <mxPoint x="190" y="410" as="sourcePoint" />
            <mxPoint x="190" y="510" as="targetPoint" />
            <Array as="points" />
          </mxGeometry>
        </mxCell>
        <mxCell id="PFkLjK3XJ7uAtAQepgfN-60" value="&lt;span style=&quot;font-size: 15px;&quot;&gt;&lt;b&gt;시간 출력&lt;br&gt;&lt;/b&gt;&lt;/span&gt;" style="rounded=1;whiteSpace=wrap;html=1;fontSize=12;glass=0;strokeWidth=1;shadow=0;" vertex="1" parent="WIyWlLk6GJQsqaUBKTNV-1">
          <mxGeometry x="120" y="420" width="140" height="60" as="geometry" />
        </mxCell>
      </root>
    </mxGraphModel>
  </diagram>
</mxfile>
